<svg width="180" height="182" viewBox="0 0 180 182" fill="none" xmlns="http://www.w3.org/2000/svg">
    <rect width="180" height="182" fill="#F2F2F2" />
    <path
        d="M77.8 101.15H102.25L94.9 91.35L88.3 99.9L83.65 93.55L77.8 101.15ZM75 109C74.2 109 73.5 108.7 72.9 108.1C72.3 107.5 72 106.8 72 106V76C72 75.2 72.3 74.5 72.9 73.9C73.5 73.3 74.2 73 75 73H105C105.8 73 106.5 73.3 107.1 73.9C107.7 74.5 108 75.2 108 76V106C108 106.8 107.7 107.5 107.1 108.1C106.5 108.7 105.8 109 105 109H75ZM75 106H105V76H75V106ZM75 76V106V76Z"
        fill="#B5B5B5" />
</svg>